# xmcd
# Track frame offsets:
# 150
# 10692
# 30430
# 41322
# 53877
# 63317
# 69312
# 85857
# 96465
# 109090
# 128085
# 139330
# 153850
# 166420
# 180402
#
# Disc length: 2830 seconds
# Revision: 0
# Processed by: cddbd v1.4PL0 Copyright (c) Steve Scherf et al.
# Submitted via: VisiTrax 2.9.5.180 - For more info visit www.synapsa.com
#
DISCID=b80b0c0f
DTITLE=Boxcar Willie and Special Guests - Cold Cold Heart
DYEAR=2003
DGENRE=Country
TTITLE0=Boxcar Willie - Wabash Cannonball
TTITLE1=Bellamy Bros. - If I Said You Had A Beautiful Body
TTITLE2=Bellamy Bros - Let Your Love Flow
TTITLE3=Boxcar Willie - Hobo Heaven
TTITLE4=Bobby Bare - White Freight Blues
TTITLE5=Bobby Bare - 500 Miles Away From Home
TTITLE6=Bellamy Bros. - Redneck Girl
TTITLE7=Bellamy Bros. - Sugar Daddy
TTITLE8=Bobby Bare - Tequila Sheila
TTITLE9=Bobby Bare - Marie Laveau
TTITLE10=Lynn Anderson - Even Cowgirls Get The Blues
TTITLE11=Lynn Anderson - Cry
TTITLE12=Lynn Anderson - Rose Garden
TTITLE13=Lynn Anderson - Where's The Fire
TTITLE14=Boxcar Willie and Special Guests - Medley: Cold Cold Heart, Take These C
TTITLE14=hains From My Heart, Half As Much, I Can't Help It If I'm Still In Lov
TTITLE14=e With You, Your Cheating Heart, You Win Again, Wedding Bells Will Nev
TTITLE14=er Ring For Me, Lovesick Blues, Move It On Over
EXTD=
EXTT0=
EXTT1=
EXTT2=
EXTT3=
EXTT4=
EXTT5=
EXTT6=
EXTT7=
EXTT8=
EXTT9=
EXTT10=
EXTT11=
EXTT12=
EXTT13=
EXTT14=
PLAYORDER=
